<?xml version="1.0" encoding="UTF-8" standalone="no"?>
<svg width="32px" height="32px" viewBox="0 0 32 32" version="1.1" xmlns="http://www.w3.org/2000/svg" xmlns:xlink="http://www.w3.org/1999/xlink" xmlns:sketch="http://www.bohemiancoding.com/sketch/ns">
    <title>0default</title>
    <description>Created with Sketch (http://www.bohemiancoding.com/sketch)</description>
    <defs></defs>
    <g id="Page-1" stroke="none" stroke-width="1" fill="none" fill-rule="evenodd" sketch:type="MSPage">
        <g id="0default" sketch:type="MSArtboardGroup" fill="#000000">
            <path d="M31.6703229,1 L32,1 L32,0 L0,0 L0,1 L0.514033781,1 L0.514033781,1 L0.514033781,1 L0,1 L0,31 L0.495976034,31 L0.495976034,31 L0,31 L0,32 L32,32 L32,31 L31.6883807,31 L31.6883807,31 L32,31 L32,1 L31.6703229,1 L31.6703229,1 Z M30.2561094,1 L1.92824734,1 L16.0921784,15.163931 L30.2561094,1 Z M16.7992851,15.8710378 L31,30.0717527 L31,1.67032293 L16.7992851,15.8710378 Z M1.67032293,31 L30.5140338,31 L16.0921784,16.5781446 L1.67032293,31 Z M15.3850716,15.8710378 L1,1.48596622 L1,30.2561094 L15.3850716,15.8710378 Z M15.3850716,15.8710378" id="Rectangle-20" sketch:type="MSShapeGroup"></path>
        </g>
    </g>
</svg>