<?xml version="1.0" encoding="UTF-8" standalone="no"?>
<svg width="24px" height="24px" viewBox="0 0 24 24" version="1.1" xmlns="http://www.w3.org/2000/svg" xmlns:xlink="http://www.w3.org/1999/xlink" xmlns:sketch="http://www.bohemiancoding.com/sketch/ns">
    <title>0default</title>
    <description>Created with Sketch (http://www.bohemiancoding.com/sketch)</description>
    <defs></defs>
    <g id="Page-1" stroke="none" stroke-width="1" fill="none" fill-rule="evenodd" sketch:type="MSPage">
        <g id="0default" sketch:type="MSArtboardGroup" fill="#000000">
            <path d="M22.5060967,2 L23,2 L23,1 L1,1 L1,2 L1.70710678,2 L1.70710678,2 L1,2 L1,22 L1.50609665,22 L1.50609665,22 L1,22 L1,23 L23,23 L23,22 L22.7071068,22 L23,22 L23,2 L22.5060967,2 L22.5060967,2 Z M21.5060967,2 L2.70710678,2 L12.1066017,11.3994949 L21.5060967,2 Z M12.8137085,12.1066017 L22,21.2928932 L22,2.92031022 L12.8137085,12.1066017 Z M2.92031022,22 L21.2928932,22 L12.1066017,12.8137085 L2.92031022,22 Z M11.3994949,12.1066017 L2,2.70710678 L2,21.5060967 L11.3994949,12.1066017 Z" id="Rectangle-20" sketch:type="MSShapeGroup"></path>
        </g>
    </g>
</svg>