<?xml version="1.0" encoding="UTF-8" standalone="no"?>
<svg width="32px" height="32px" viewBox="0 0 32 32" version="1.1" xmlns="http://www.w3.org/2000/svg" xmlns:xlink="http://www.w3.org/1999/xlink" xmlns:sketch="http://www.bohemiancoding.com/sketch/ns">
    <title>fontsize</title>
    <description>Created with Sketch (http://www.bohemiancoding.com/sketch)</description>
    <defs></defs>
    <g id="Page-1" stroke="none" stroke-width="1" fill="none" fill-rule="evenodd" sketch:type="MSPage">
        <g id="fontsize" sketch:type="MSArtboardGroup" fill="#000000">
            <path d="M17.1777344,21 L9.36055986,21 L9.36055986,20.0292969 C10.0041457,20.0110676 10.5241082,19.9404303 10.9204629,19.8173828 C11.3168176,19.6943353 11.514992,19.5052096 11.514992,19.25 C11.514992,19.1132806 11.4247344,18.8307313 11.2442164,18.4023438 C11.0636984,17.9739562 10.8321679,17.4954454 10.549618,16.9667969 C10.2356737,16.3834606 9.86287042,15.6975951 9.43119698,14.9091797 C8.99952354,14.1207643 8.57178082,13.3665401 8.14795598,12.6464844 C7.45727847,13.7037813 6.67242944,14.9775316 5.79338534,16.4677734 C4.91434124,17.9580153 4.47482579,18.8352851 4.47482579,19.0996094 C4.47482579,19.4003921 4.59451526,19.6214186 4.83389781,19.7626953 C5.07328035,19.9039721 5.60109133,19.9928384 6.41734656,20.0292969 L6.41734656,21 L0.177734375,21 L0.177734375,20.0292969 C0.381798184,20.0110676 0.642760486,19.9768883 0.960629112,19.9267578 C1.27849774,19.8766274 1.53946004,19.7923183 1.74352385,19.6738281 C2.15165147,19.4186185 2.47932594,19.1429051 2.72655709,18.8466797 C2.97378824,18.5504542 3.22297781,18.2018249 3.47413327,17.8007812 C3.97644418,16.9986939 4.62002039,15.9983784 5.40488119,14.7998047 C6.18974199,13.601231 6.88433338,12.5097705 7.4886762,11.5253906 C7.03345694,10.7506472 6.45266865,9.76856063 5.74629393,8.57910156 C5.03991921,7.38964249 4.28646414,6.11589221 3.48590612,4.7578125 C3.14841597,4.18359088 2.88352943,3.77799598 2.69123853,3.54101562 C2.49894763,3.30403527 2.24190958,3.0989592 1.92011665,2.92578125 C1.73175005,2.82552033 1.47078775,2.74576853 1.13722191,2.68652344 C0.803656068,2.62727835 0.53876952,2.58854176 0.34255432,2.5703125 L0.34255432,1.59960938 L8.07731886,1.59960938 L8.07731886,2.5703125 C7.6220996,2.58854176 7.14922806,2.65462183 6.65869005,2.76855469 C6.16815205,2.88248755 5.92288673,3.05794152 5.92288673,3.29492188 C5.92288673,3.46809982 6.02099286,3.77115669 6.21720806,4.20410156 C6.41342326,4.63704644 6.64495372,5.09960691 6.9118064,5.59179688 C7.18650768,6.10221609 7.4925988,6.66731461 7.83008895,7.28710938 C8.16757909,7.90690414 8.57962483,8.62239178 9.06623853,9.43359375 C9.95313124,8.03905553 10.718359,6.78125561 11.3619449,5.66015625 C12.0055308,4.53905689 12.3273189,3.80989752 12.3273189,3.47265625 C12.3273189,3.18098812 12.1801597,2.96679756 11.8858369,2.83007812 C11.5915141,2.69335869 11.0950971,2.60677102 10.3965709,2.5703125 L10.3965709,1.59960938 L16.6244103,1.59960938 L16.6244103,2.5703125 C16.4281951,2.57942713 16.171157,2.61360647 15.8532884,2.67285156 C15.5354198,2.73209665 15.2705332,2.8164057 15.0586208,2.92578125 C14.6504932,3.15364697 14.3463642,3.39973826 14.1462247,3.6640625 C13.9460852,3.92838674 13.6772744,4.31119541 13.3397842,4.8125 C12.7118956,5.75130678 12.1330694,6.6331339 11.6032884,7.45800781 C11.0735073,8.28288173 10.4358175,9.28775449 9.69019975,10.4726562 C10.3180884,11.5117239 11.0185662,12.6920507 11.791654,14.0136719 C12.5647419,15.3352931 13.3044621,16.5976502 14.0108369,17.8007812 C14.2541437,18.2109396 14.5327651,18.6005841 14.8467094,18.9697266 C15.1606538,19.338869 15.4157297,19.5917962 15.6119449,19.7285156 C15.8003115,19.8561204 16.0534253,19.9358722 16.3712939,19.9677734 C16.6891626,19.9996746 16.9579734,20.0201822 17.1777344,20.0292969 C17.1777344,20.0292969 16.9579734,20.0201822 17.1777344,20.0292969 L17.1777344,21 Z M14.1490888,27.2880859 C14.3666777,27.0009751 14.6376706,26.8574219 14.9620757,26.8574219 C15.21527,26.8574219 15.4328556,26.9121088 15.6148389,27.0214844 C15.7968223,27.1308599 15.9590225,27.2721346 16.1014442,27.4453125 C16.2201291,27.5820319 16.3467243,27.768879 16.4812337,28.0058594 C16.6157432,28.2428397 16.7225579,28.4388013 16.8016811,28.59375 C17.1972972,28.347655 17.6700512,27.7050833 18.2199575,26.6660156 C18.7698638,25.6269479 19.167452,24.7154987 19.4127339,23.9316406 C18.6610635,21.7714736 17.9806141,19.8392012 17.3713654,18.1347656 C16.7621167,16.43033 16.1251844,14.6666758 15.4605495,12.84375 C15.3102154,12.4244771 15.0570249,12.098634 14.7009705,11.8662109 C14.344916,11.6337879 13.9888669,11.4856774 13.6328125,11.421875 L13.6328125,10.5195312 L18.9736023,10.5195312 L18.9736023,11.4765625 C18.7362327,11.4856771 18.4513934,11.5426427 18.119076,11.6474609 C17.7867585,11.7522792 17.6206022,11.8730462 17.6206022,12.0097656 C17.6206022,12.0644534 17.6384047,12.1555983 17.6740101,12.2832031 C17.7096156,12.4108079 17.7511546,12.5429681 17.7986286,12.6796875 C18.0992968,13.5820358 18.5582045,14.8831295 19.1753655,16.5830078 C19.7925265,18.2828861 20.2712147,19.6432241 20.6114445,20.6640625 C20.967499,19.6887972 21.3373944,18.6793672 21.721142,17.6357422 C22.1048895,16.5921172 22.5341265,15.3593821 23.0088657,13.9375 C23.064252,13.7643221 23.143374,13.5250666 23.2462342,13.2197266 C23.3490944,12.9143865 23.4005237,12.6523448 23.4005237,12.4335938 C23.4005237,12.1966134 23.2205211,11.975587 22.8605105,11.7705078 C22.5004999,11.5654287 22.1582971,11.4401044 21.833892,11.3945312 L21.833892,10.5195312 L26.1777344,10.5195312 L26.1777344,11.3671875 C25.9403648,11.4127606 25.6278328,11.5699856 25.2401291,11.8388672 C24.8524253,12.1077487 24.56363,12.4882788 24.3737343,12.9804688 C23.4321681,15.4961063 22.5954527,17.7884011 21.863563,19.8574219 C21.6169815,20.5544973 21.3903841,21.1894947 21.1837701,21.7624157 C20.7771239,22.8900073 20.4478853,23.7771402 20.1960498,24.4238281 C19.6975736,25.6998762 19.2525122,26.6956344 18.8608523,27.4111328 C18.4691924,28.1266312 18.0874287,28.6894511 17.7155496,29.0996094 C17.3515829,29.4824238 17.0212484,29.7399082 16.7245364,29.8720703 C16.4278244,30.0042324 16.1212265,30.0703125 15.8047337,30.0703125 C15.1875727,30.0703125 14.7029503,29.9016944 14.350852,29.5644531 C13.9987537,29.2272119 13.8227072,28.8398459 13.8227072,28.4023438 C13.8227072,27.9466123 13.9315,27.5751967 14.1490888,27.2880859 Z M14.1490888,27.2880859" id="Xy" sketch:type="MSShapeGroup"></path>
            <path d="M17,15.5 L17,12.5 L13,16 L17,19.5 L17,16.5 L39,16.5 L39,19.5 L43,16 L39,12.5 L39,15.5 L17,15.5 Z M17,15.5" id="dimension-arrow" sketch:type="MSShapeGroup" transform="translate(28.000000, 16.000000) rotate(-90.000000) translate(-28.000000, -16.000000) "></path>
            <rect d="M24.5,-6.5 L24.5,7.5 L25.5,7.5 L25.5,-6.5 L24.5,-6.5 Z M24.5,-6.5" id="right-leader" sketch:type="MSShapeGroup" transform="translate(25.000000, 0.500000) rotate(-90.000000) translate(-25.000000, -0.500000) " x="24.5" y="-6.5" width="1" height="14"></rect>
            <rect d="M24.5,24.5 L24.5,38.5 L25.5,38.5 L25.5,24.5 L24.5,24.5 Z M24.5,24.5" id="right-leader" sketch:type="MSShapeGroup" transform="translate(25.000000, 31.500000) rotate(-90.000000) translate(-25.000000, -31.500000) " x="24.5" y="24.5" width="1" height="14"></rect>
        </g>
    </g>
</svg>