<?xml version="1.0" encoding="UTF-8" standalone="no"?>
<svg width="32px" height="32px" viewBox="0 0 32 32" version="1.1" xmlns="http://www.w3.org/2000/svg" xmlns:xlink="http://www.w3.org/1999/xlink" xmlns:sketch="http://www.bohemiancoding.com/sketch/ns">
    <title>pagesize</title>
    <description>Created with Sketch (http://www.bohemiancoding.com/sketch)</description>
    <defs></defs>
    <g id="Page-1" stroke="none" stroke-width="1" fill="none" fill-rule="evenodd" sketch:type="MSPage">
        <g id="pagesize" sketch:type="MSArtboardGroup" fill="#000000">
            <rect d="M0,0 L0,14 L1,14 L1,0 L0,0 Z M0,0" id="left-leader" sketch:type="MSShapeGroup" x="0" y="0" width="1" height="14"></rect>
            <rect d="M31,0 L31,14 L32,14 L32,0 L31,0 Z M31,0" id="right-leader" sketch:type="MSShapeGroup" x="31" y="0" width="1" height="14"></rect>
            <path d="M5,4 L5,1 L1,4.5 L5,8 L5,5 L27,5 L27,8 L31,4.5 L27,1 L27,4 L5,4 Z M5,4" id="dimension-arrow" sketch:type="MSShapeGroup"></path>
            <path d="M9,16 L11,16 L30,16 L30,18 L10,18 L2,26 L2,32 L0,32 L0,27 L1.99840144e-15,27 L6.66133815e-15,25 L9,16 Z M30,16 L30,32 L32,32 L32,16 L30,16 Z M30,16" id="Rectangle-4" sketch:type="MSShapeGroup"></path>
            <path d="M-1.11022302e-15,23.7928932 L4.4408921e-16,16 L1,16 L1,22.7928932 L-2.22044605e-15,23.7928932 Z M-1.11022302e-15,23.7928932" id="Rectangle-9" sketch:type="MSShapeGroup"></path>
            <path d="M6.79289322,17 L1,17 L1,16 L7.79289322,16 L6.79289322,17 Z M6.79289322,17" id="Rectangle" sketch:type="MSShapeGroup"></path>
        </g>
    </g>
</svg>