<?xml version="1.0" encoding="UTF-8" standalone="no"?>
<svg width="24px" height="24px" viewBox="0 0 24 24" version="1.1" xmlns="http://www.w3.org/2000/svg" xmlns:xlink="http://www.w3.org/1999/xlink" xmlns:sketch="http://www.bohemiancoding.com/sketch/ns">
    <title>scale</title>
    <description>Created with Sketch (http://www.bohemiancoding.com/sketch)</description>
    <defs></defs>
    <g id="Page-1" stroke="none" stroke-width="1" fill="none" fill-rule="evenodd" sketch:type="MSPage">
        <g id="scale" sketch:type="MSArtboardGroup" fill="#000000">
            <path d="M1,1 L1,2 L10,2 L10,1 L1,1 Z M10,1 L10,10 L11,10 L11,1 L10,1 Z M1,10 L1,11 L11,11 L11,10 L1,10 Z M1,2 L1,10 L2,10 L2,2 L1,2 Z M1,2" id="Rectangle-11" sketch:type="MSShapeGroup"></path>
            <path d="M3,12 L3,23 L4,23 L4,12 L3,12 Z M22,4 L22,22 L23,22 L23,4 L22,4 Z M12,3 L12,4 L23,4 L23,3 L12,3 Z M4,22 L4,23 L23,23 L23,22 L4,22 Z M4,22" id="Rectangle-15" sketch:type="MSShapeGroup"></path>
            <path d="M16.7759774,20.8795487 L21,21 L21,16.4133262 L19.5745379,18.1915393 L13.90618,13.2254117 L15.2709181,12 L12,12 L12,15.2661939 L13.2772219,13.9389451 L18.2126924,19.5289519 L16.7759774,20.8795487 Z M16.7759774,20.8795487" id="Triangle-3" sketch:type="MSShapeGroup"></path>
        </g>
    </g>
</svg>