<?xml version="1.0" encoding="UTF-8" standalone="no"?>
<svg width="32px" height="32px" viewBox="0 0 32 32" version="1.1" xmlns="http://www.w3.org/2000/svg" xmlns:xlink="http://www.w3.org/1999/xlink" xmlns:sketch="http://www.bohemiancoding.com/sketch/ns">
    <title>scale</title>
    <description>Created with Sketch (http://www.bohemiancoding.com/sketch)</description>
    <defs></defs>
    <g id="Page-1" stroke="none" stroke-width="1" fill="none" fill-rule="evenodd" sketch:type="MSPage">
        <g id="scale" sketch:type="MSArtboardGroup" fill="#000000">
            <path d="M0,1 L0,0 L15,0 L16,0 L16,14.5 L16,14.5 L16,16 L0,16 L0,14.5 L0,1 Z M2,2 L14,2 L14,14 L2,14 L2,2 Z M2,2" id="Rectangle-11" sketch:type="MSShapeGroup"></path>
            <path d="M0,17 L0,32 L1,32 L1,17 L0,17 Z M31,0 L31,31 L32,31 L32,0 L31,0 Z M17,0 L17,1 L31,1 L31,0 L17,0 Z M1,31 L1,32 L32,32 L32,31 L1,31 Z M1,31" id="Rectangle-15" sketch:type="MSShapeGroup"></path>
            <polygon d="M27.8824425,25.9900548 L31.3824425,29.9900548 L24.3824425,29.9900548 L27.8824425,25.9900548 Z M27.8824425,25.9900548" id="Triangle-3" sketch:type="MSShapeGroup" transform="translate(27.882443, 27.990055) rotate(135.000000) translate(-27.882443, -27.990055) " points="27.8824425 25.9900548 31.3824425 29.9900548 24.3824425 29.9900548 "></polygon>
            <polygon d="M18.1730287,16.2138209 L21.6730287,20.2138209 L14.6730287,20.2138209 L18.1730287,16.2138209 Z M18.1730287,16.2138209" id="Triangle-3" sketch:type="MSShapeGroup" transform="translate(18.173029, 18.213821) rotate(-45.000000) translate(-18.173029, -18.213821) " points="18.1730287 16.2138209 21.6730287 20.2138209 14.6730287 20.2138209 "></polygon>
            <rect d="M15.6955607,22.4420831 L15.6955607,23.1491899 L29.6804877,23.1491899 L29.6804877,22.4420831 L15.6955607,22.4420831 Z M15.6955607,22.4420831" id="Rectangle-19" sketch:type="MSShapeGroup" transform="translate(22.688024, 22.795636) rotate(-315.000000) translate(-22.688024, -22.795636) " x="15.6955607" y="22.4420831" width="13.984927" height="0.707106781"></rect>
        </g>
    </g>
</svg>